<?xml version="1.0" standalone="no"?>
<!DOCTYPE svg PUBLIC "-//W3C//DTD SVG 20010904//EN"
 "http://www.w3.org/TR/2001/REC-SVG-20010904/DTD/svg10.dtd">
<svg version="1.0" xmlns="http://www.w3.org/2000/svg"
 width="848.000000pt" height="848.000000pt" viewBox="0 0 848.000000 848.000000"
 preserveAspectRatio="xMidYMid meet">

<g transform="translate(0.000000,848.000000) scale(0.100000,-0.100000)"
fill="#000000" stroke="none">
<path d="M0 4240 l0 -4240 4240 0 4240 0 0 4240 0 4240 -4240 0 -4240 0 0
-4240z m5071 435 c78 -27 157 -108 175 -179 6 -26 6 -26 -54 -26 -58 0 -61 1
-80 34 -38 64 -122 86 -196 51 -125 -59 -127 -280 -3 -338 75 -36 168 -12 205
53 16 28 21 30 80 30 l62 0 -15 -37 c-36 -85 -91 -140 -172 -169 -125 -44
-277 25 -343 156 -35 68 -38 168 -9 245 55 147 211 227 350 180z m-1308 -34
c9 -21 54 -142 101 -267 46 -126 89 -241 95 -256 l11 -28 -63 0 -63 0 -21 58
-20 57 -115 3 -115 3 -18 -61 -18 -60 -60 0 c-56 0 -59 1 -54 22 4 12 52 145
108 295 l102 273 58 0 c57 0 57 0 72 -39z m785 -18 l-3 -58 -82 -3 -83 -3 0
-234 0 -235 -60 0 -60 0 0 235 0 234 -87 3 -88 3 -1 58 -1 57 234 0 234 0 -3
-57z m1022 -58 l0 -115 120 0 120 0 0 115 0 115 60 0 60 0 0 -295 0 -295 -60
0 -60 0 0 119 0 120 -120 3 -120 3 0 -122 0 -123 -60 0 -60 0 0 295 0 295 60
0 60 0 0 -115z m990 60 l0 -54 -137 -3 -138 -3 -3 -57 -3 -58 126 0 125 0 0
-55 0 -55 -125 0 -125 0 0 -70 0 -70 145 0 145 0 0 -55 0 -55 -205 0 -205 0 0
295 0 295 200 0 200 0 0 -55z m513 44 c77 -21 137 -102 137 -182 0 -61 -38
-115 -109 -157 -11 -6 1 -32 53 -118 36 -60 66 -113 66 -116 0 -4 -30 -6 -67
-4 l-68 3 -55 102 -55 103 -42 0 -43 0 0 -105 0 -105 -60 0 -60 0 0 295 0 295
133 0 c72 0 149 -5 170 -11z m-5063 -19 c0 -5 -2 -10 -4 -10 -3 0 -8 5 -11 10
-3 6 -1 10 4 10 6 0 11 -4 11 -10z m1063 -175 c-3 -9 -8 -14 -10 -11 -3 3 -2
9 2 15 9 16 15 13 8 -4z m-1056 -207 c-3 -7 -5 -2 -5 12 0 14 2 19 5 13 2 -7
2 -19 0 -25z m851 -53 c-3 -3 -9 2 -12 12 -6 14 -5 15 5 6 7 -7 10 -15 7 -18z
m160 0 c-3 -3 -9 2 -12 12 -6 14 -5 15 5 6 7 -7 10 -15 7 -18z m-927 -2 c13
-16 12 -17 -3 -4 -10 7 -18 15 -18 17 0 8 8 3 21 -13z m44 -31 c-3 -3 -11 0
-18 7 -9 10 -8 11 6 5 10 -3 15 -9 12 -12z m205 -26 c0 -2 -7 -7 -16 -10 -8
-3 -12 -2 -9 4 6 10 25 14 25 6z m-285 -25 c-3 -5 2 -12 10 -14 12 -4 12 -5
-1 -3 -19 1 -32 26 -14 26 6 0 9 -4 5 -9z m72 -7 c-3 -3 -12 -4 -19 -1 -8 3
-5 6 6 6 11 1 17 -2 13 -5z m158 -4 c-3 -5 -12 -10 -18 -10 -7 0 -6 4 3 10 19
12 23 12 15 0z m895 -9 c0 -5 -7 -12 -16 -15 -14 -5 -15 -4 -4 9 14 17 20 19
20 6z m-2070 -321 c11 -7 15 -29 15 -90 0 -61 -4 -83 -15 -90 -8 -5 -47 -10
-87 -10 -93 0 -103 9 -103 100 0 91 10 100 103 100 40 0 79 -5 87 -10z m299
-4 c7 -8 11 -32 9 -53 -3 -35 -6 -38 -35 -41 -18 -2 -33 -6 -33 -10 0 -3 17
-23 37 -44 23 -24 31 -38 22 -38 -8 0 -35 20 -59 45 -24 25 -52 45 -62 45 -15
0 -18 -8 -18 -45 0 -25 -4 -45 -10 -45 -6 0 -10 40 -10 100 l0 100 74 0 c52 0
77 -4 85 -14z m309 2 c7 -7 12 -42 12 -88 0 -46 -5 -81 -12 -88 -7 -7 -44 -12
-95 -12 l-83 0 0 100 0 100 83 0 c51 0 88 -5 95 -12z m302 2 c0 -6 -30 -10
-70 -10 l-70 0 0 -35 0 -35 55 0 c30 0 55 -4 55 -10 0 -5 -25 -10 -55 -10
l-55 0 0 -35 0 -35 70 0 c40 0 70 -4 70 -10 0 -6 -35 -10 -85 -10 l-85 0 0
100 0 100 85 0 c50 0 85 -4 85 -10z m269 1 c13 -9 18 -71 6 -90 -3 -6 -19 -11
-36 -11 -16 0 -29 -3 -29 -7 0 -4 17 -24 37 -45 23 -24 31 -38 22 -38 -8 0
-35 20 -59 45 -24 25 -52 45 -62 45 -15 0 -18 -8 -18 -45 0 -25 -4 -45 -10
-45 -6 0 -10 40 -10 100 l0 100 73 0 c39 0 78 -4 86 -9z m334 -73 c23 -43 45
-78 49 -78 4 0 26 36 49 80 57 110 69 106 69 -20 0 -118 -18 -136 -22 -22 l-3
77 -40 -74 c-22 -41 -46 -76 -52 -78 -6 -2 -28 28 -48 66 -21 39 -41 71 -46
71 -5 0 -9 -31 -9 -70 0 -40 -4 -70 -10 -70 -6 0 -10 40 -10 101 0 126 13 129
73 17z m427 -18 c33 -66 46 -100 37 -100 -8 0 -19 11 -25 25 -11 23 -17 25
-75 25 -58 0 -65 -2 -75 -25 -10 -21 -32 -35 -32 -20 0 18 97 195 107 195 7 0
35 -45 63 -100z m300 90 c0 -5 -18 -10 -40 -10 l-40 0 0 -90 c0 -73 -3 -90
-15 -90 -12 0 -15 17 -15 90 l0 90 -40 0 c-22 0 -40 5 -40 10 0 6 38 10 95 10
57 0 95 -4 95 -10z m278 -2 c14 -14 16 -48 3 -48 -5 0 -13 9 -16 20 -6 19 -14
21 -73 18 l-67 -3 0 -75 0 -75 66 -3 c63 -3 66 -2 79 25 14 27 14 28 18 5 6
-41 -14 -52 -92 -52 -43 0 -77 5 -84 12 -16 16 -16 160 0 176 16 16 150 16
166 0z m152 -33 l0 -45 75 0 75 0 0 45 c0 25 5 45 10 45 6 0 10 -40 10 -100 0
-60 -4 -100 -10 -100 -5 0 -10 20 -10 45 l0 45 -75 0 -75 0 0 -45 c0 -25 -4
-45 -10 -45 -6 0 -10 40 -10 100 0 60 4 100 10 100 6 0 10 -20 10 -45z m430
36 c0 -6 -15 -11 -32 -13 -32 -3 -33 -4 -36 -57 -5 -82 3 -101 38 -101 17 0
30 -4 30 -10 0 -6 -32 -10 -75 -10 -43 0 -75 4 -75 10 0 6 14 10 30 10 l30 0
0 80 0 80 -30 0 c-16 0 -30 5 -30 10 0 6 32 10 75 10 41 0 75 -4 75 -9z m197
-71 l68 -80 3 80 c2 62 6 80 17 80 12 0 15 -19 15 -100 0 -80 -3 -100 -14
-100 -8 0 -45 36 -83 80 l-68 80 -3 -80 c-2 -62 -6 -80 -17 -80 -12 0 -15 19
-15 100 0 80 3 100 14 100 8 0 45 -36 83 -80z m401 68 c14 -14 16 -48 3 -48
-5 0 -11 9 -14 20 -5 19 -12 21 -74 18 l-68 -3 0 -75 0 -75 70 0 c69 0 70 0
73 28 3 26 1 27 -37 27 -23 0 -41 5 -41 10 0 6 25 10 55 10 53 0 55 -1 55 -28
0 -15 -7 -38 -16 -50 -13 -19 -24 -22 -88 -22 -43 0 -77 5 -84 12 -16 16 -16
160 0 176 16 16 150 16 166 0z m404 -85 c26 -54 45 -100 42 -102 -7 -7 -34 21
-34 35 0 11 -16 14 -65 14 -60 0 -66 -2 -77 -25 -6 -14 -17 -25 -25 -25 -9 0
4 34 37 100 28 55 56 100 63 100 7 0 34 -44 59 -97z m158 7 l0 -90 70 0 c40 0
70 -4 70 -10 0 -6 -33 -10 -80 -10 l-80 0 0 100 c0 60 4 100 10 100 6 0 10
-37 10 -90z m420 71 c5 -11 10 -24 10 -30 0 -19 -18 -12 -25 9 -6 17 -15 20
-75 20 -65 0 -70 -2 -76 -24 -3 -13 -3 -45 0 -72 2 -27 5 -52 5 -56 1 -5 32
-8 70 -8 54 0 70 4 75 16 14 36 7 44 -39 44 -25 0 -45 5 -45 10 0 6 25 10 55
10 l55 0 0 -38 c0 -54 -13 -62 -96 -62 -94 0 -104 9 -104 100 0 91 9 100 105
100 63 0 76 -3 85 -19z m318 7 c7 -7 12 -42 12 -88 0 -46 -5 -81 -12 -88 -7
-7 -42 -12 -88 -12 -46 0 -81 5 -88 12 -7 7 -12 42 -12 88 0 46 5 81 12 88 16
16 160 16 176 0z m300 0 c7 -7 12 -26 12 -43 0 -39 -16 -55 -54 -55 l-30 0 44
-45 c27 -27 38 -45 29 -45 -8 0 -35 20 -59 45 -24 25 -52 45 -62 45 -15 0 -18
-8 -18 -45 0 -33 -4 -45 -15 -45 -12 0 -15 18 -15 100 l0 100 78 0 c47 0 83
-5 90 -12z m262 2 c0 -5 -13 -10 -29 -10 -28 0 -28 -1 -34 -72 -3 -39 -4 -75
-1 -80 3 -4 18 -8 35 -8 16 0 29 -4 29 -10 0 -6 -32 -10 -75 -10 -43 0 -75 4
-75 10 0 6 14 10 30 10 l30 0 0 80 0 80 -30 0 c-16 0 -30 5 -30 10 0 6 32 10
75 10 43 0 75 -4 75 -10z m275 0 c4 -6 -12 -10 -39 -10 l-46 0 0 -90 c0 -73
-3 -90 -15 -90 -12 0 -15 17 -15 90 l0 90 -40 0 c-22 0 -40 5 -40 10 0 6 38
10 94 10 53 0 98 -4 101 -10z m117 -32 l3 -43 73 -3 72 -3 0 46 c0 43 19 66
21 25 4 -93 -1 -180 -11 -180 -5 0 -10 20 -10 45 l0 45 -75 0 -75 0 0 -45 c0
-25 -4 -45 -10 -45 -6 0 -10 40 -10 100 0 99 16 141 22 58z m328 35 c0 -5 20
-43 44 -87 l43 -78 45 83 c24 47 51 85 61 87 15 3 17 -8 17 -98 0 -77 -3 -101
-12 -98 -8 3 -15 32 -18 76 l-5 71 -39 -74 c-22 -41 -44 -75 -50 -75 -6 0 -29
35 -51 77 l-40 76 -3 -77 c-4 -112 -22 -94 -22 24 0 82 3 100 15 100 8 0 15
-3 15 -7z m-2532 -3070 l-3 -298 -47 -3 -48 -3 0 300 0 301 50 0 50 0 -2 -297z
m1822 177 c0 -66 2 -120 4 -120 3 0 20 9 38 19 161 94 331 -60 278 -251 -13
-44 -52 -93 -89 -112 -66 -33 -151 -27 -204 14 l-26 20 -3 -22 c-3 -20 -9 -23
-48 -23 l-45 0 -2 298 -2 297 49 0 50 0 0 -120z m-2096 85 c56 -28 80 -65 80
-123 0 -53 -17 -84 -60 -113 l-27 -17 29 -15 c46 -24 75 -62 81 -105 7 -53 -1
-84 -33 -122 -44 -51 -83 -62 -246 -68 l-148 -4 0 297 0 297 143 -4 c116 -3
149 -7 181 -23z m676 -193 c63 -39 90 -90 90 -171 0 -110 -56 -177 -167 -201
-155 -33 -286 96 -252 248 31 141 198 204 329 124z m410 27 c184 -39 218 -293
50 -379 -82 -42 -178 -33 -245 23 -123 101 -85 305 66 352 55 17 66 18 129 4z
m479 1 c19 -5 45 -19 57 -31 22 -21 25 -21 42 -6 52 48 142 57 197 21 46 -30
55 -69 55 -234 l0 -151 -47 3 -48 3 -5 140 c-3 77 -8 145 -13 152 -24 37 -121
15 -132 -30 -3 -12 -6 -76 -8 -142 l-2 -120 -47 -3 -46 -3 -4 141 c-3 137 -4
143 -28 162 -31 25 -76 18 -107 -18 -21 -23 -23 -35 -23 -155 l0 -130 -47 3
-48 3 -3 198 -2 198 47 -3 c41 -3 48 -6 54 -28 4 -14 7 -19 8 -12 1 14 75 51
101 52 8 0 30 -4 49 -10z m1176 -1 c59 -17 110 -73 124 -137 21 -99 32 -92
-139 -92 -137 0 -150 -2 -150 -18 0 -48 71 -90 130 -77 16 3 41 15 55 26 l25
20 30 -21 c36 -26 37 -31 8 -57 -40 -36 -72 -47 -140 -46 -126 1 -208 79 -208
198 0 104 48 171 143 201 53 16 72 17 122 3z m443 -41 l3 -48 -45 0 c-33 0
-52 -6 -73 -24 -27 -24 -28 -27 -33 -153 l-5 -128 -45 0 -45 0 0 195 0 195 45
0 c39 0 45 -3 48 -22 l3 -23 32 24 c34 26 60 35 92 33 17 -2 21 -10 23 -49z
m265 38 c21 -8 47 -22 57 -31 17 -16 19 -15 22 7 3 20 8 23 48 23 l45 0 0
-220 c0 -195 -2 -224 -19 -255 -26 -49 -45 -69 -88 -91 -52 -27 -187 -26 -243
1 -72 34 -72 34 -41 79 l28 40 42 -23 c55 -32 96 -39 145 -26 49 13 72 43 78
104 l5 45 -47 -25 c-79 -39 -160 -30 -219 24 -109 102 -75 299 59 347 50 18
80 18 128 1z"/>
<path d="M3655 4432 c-17 -48 -31 -93 -33 -99 -3 -10 16 -13 67 -13 39 0 71 2
71 4 0 11 -63 182 -69 188 -4 5 -20 -31 -36 -80z"/>
<path d="M6897 4563 c-4 -3 -7 -39 -7 -80 l0 -73 65 0 c82 0 121 18 130 61 10
44 -11 77 -54 89 -41 11 -124 13 -134 3z"/>
<path d="M956 3765 c-12 -32 -6 -122 8 -134 9 -7 40 -11 78 -9 l63 3 0 75 0
75 -71 3 c-59 2 -73 0 -78 -13z"/>
<path d="M1280 3745 l0 -36 63 3 c62 3 62 3 62 33 0 30 0 30 -62 33 l-63 3 0
-36z"/>
<path d="M1570 3700 l0 -80 63 0 c34 0 68 4 75 9 9 5 12 28 10 77 l-3 69 -72
3 -73 3 0 -81z"/>
<path d="M2160 3745 l0 -35 66 0 65 0 -3 33 c-3 32 -3 32 -65 35 l-63 3 0 -36z"/>
<path d="M2972 3725 c-12 -25 -22 -48 -22 -50 0 -3 23 -5 50 -5 l50 0 -25 50
c-14 28 -27 50 -28 50 -2 0 -13 -20 -25 -45z"/>
<path d="M5132 3720 l-21 -50 50 0 c27 0 49 2 49 5 0 11 -45 95 -51 95 -3 0
-16 -22 -27 -50z"/>
<path d="M5957 3774 c-10 -10 -9 -126 2 -142 5 -9 28 -12 77 -10 l69 3 0 75 0
75 -70 3 c-39 1 -74 0 -78 -4z"/>
<path d="M6280 3745 l0 -35 59 0 c49 0 61 3 66 19 12 39 -4 51 -66 51 l-59 0
0 -35z"/>
<path d="M6750 722 c-23 -11 -39 -29 -48 -54 -39 -103 51 -196 151 -155 85 36
90 169 7 212 -38 20 -67 19 -110 -3z"/>
<path d="M4375 908 c-3 -9 -5 -42 -3 -74 l3 -59 71 -3 c59 -2 75 1 97 18 37
29 38 83 2 106 -36 23 -163 32 -170 12z"/>
<path d="M4374 667 c-3 -8 -4 -45 -2 -83 l3 -69 70 -3 c51 -2 79 2 105 15 65
33 61 118 -6 143 -40 15 -164 13 -170 -3z"/>
<path d="M5110 733 c-8 -3 -25 -15 -37 -26 -77 -69 -30 -202 71 -202 53 0 93
26 113 73 13 32 14 42 2 77 -22 62 -92 99 -149 78z"/>
<path d="M5573 725 c-43 -18 -67 -66 -60 -122 6 -53 28 -79 77 -94 104 -31
185 74 134 172 -15 30 -66 59 -101 59 -10 -1 -32 -7 -50 -15z"/>
<path d="M7195 725 c-14 -13 -25 -33 -25 -45 0 -19 6 -20 100 -20 113 0 123 8
71 61 -40 39 -109 41 -146 4z"/>
<path d="M7953 725 c-38 -16 -63 -60 -63 -111 0 -54 53 -104 109 -104 80 0
121 41 121 118 0 44 -20 76 -60 97 -36 18 -65 18 -107 0z"/>
</g>
</svg>
